<svg xmlns="http://www.w3.org/2000/svg" xmlns:xlink="http://www.w3.org/1999/xlink" width="79.905" height="100" viewBox="0 0 79.905 100"><defs><style>.a{fill:none;}.b,.e,.i,.j,.k{isolation:isolate;}.c{fill:url(#a);}.d{fill:#ff544f;}.dt,.e,.i,.j,.k{fill:#fff;}.e{opacity:0.4;mix-blend-mode:multiply;}.f{fill:url(#b);}.g{fill:#e12529;}.h{fill:#001d40;}.i{opacity:0.75;}.i,.j,.k{mix-blend-mode:screen;}.j{opacity:0.15;}.k{opacity:0.2;}.l{fill:#ffd600;}.m{clip-path:url(#c);}.n{fill:#ffba00;}.o{fill:#ffbb01;}.p{fill:#ffbb03;}.q{fill:#ffbc04;}.r{fill:#ffbc05;}.s{fill:#ffbd06;}.t{fill:#ffbd08;}.u{fill:#ffbe09;}.v{fill:#ffbe0a;}.w{fill:#ffbf0b;}.x{fill:#ffbf0c;}.y{fill:#ffc00e;}.z{fill:#ffc00f;}.aa{fill:#ffc110;}.ab{fill:#ffc111;}.ac{fill:#ffc213;}.ad{fill:#ffc214;}.ae{fill:#ffc315;}.af{fill:#ffc316;}.ag{fill:#ffc417;}.ah{fill:#ffc419;}.ai{fill:#ffc51a;}.aj{fill:#ffc51b;}.ak{fill:#ffc61c;}.al{fill:#ffc61d;}.am{fill:#ffc71f;}.an{fill:#ffc720;}.ao{fill:#ffc821;}.ap{fill:#ffc822;}.aq{fill:#ffc923;}.ar{fill:#ffc924;}.as{fill:#ffca26;}.at{fill:#ffca27;}.au{fill:#ffcb28;}.av{fill:#ffcb29;}.aw{fill:#ffcc2a;}.ax{fill:#ffcc2b;}.ay{fill:#ffcd2c;}.az{fill:#ffcd2e;}.ba{fill:#ffce2f;}.bb{fill:#ffce30;}.bc{fill:#ffcf31;}.bd{fill:#ffcf32;}.be{fill:#ffd033;}.bf{fill:#ffd034;}.bg{fill:#ffd135;}.bh{fill:#ffd137;}.bi{fill:#ffd238;}.bj{fill:#ffd239;}.bk{fill:#ffd33a;}.bl{fill:#ffd33b;}.bm{fill:#ffd43c;}.bn{fill:#ffd43d;}.bo{fill:#ffd43e;}.bp{fill:#ffd53f;}.bq{fill:#ffd540;}.br{fill:#ffd641;}.bs{fill:#ffd642;}.bt{fill:#ffd744;}.bu{fill:#ffd745;}.bv{fill:#ffd846;}.bw{fill:#ffd847;}.bx{fill:#ffd848;}.by{fill:#ffd949;}.bz{fill:#ffd94a;}.ca{fill:#ffda4b;}.cb{fill:#ffda4c;}.cc{fill:#ffdb4d;}.cd{fill:#ffdb4e;}.ce{fill:#ffdb4f;}.cf{fill:#ffdc50;}.cg{fill:#ffdc51;}.ch{fill:#ffdd52;}.ci{fill:#ffdd53;}.cj{fill:#ffde54;}.ck{fill:#ffde55;}.cl{fill:#ffde56;}.cm{fill:#ffdf57;}.cn{fill:#ffe058;}.co{fill:#ffe059;}.cp{fill:#ffe05a;}.cq{fill:#ffe15b;}.cr{fill:#ffe15c;}.cs{fill:#ffe15d;}.ct{fill:#ffe25e;}.cu{fill:#ffe25f;}.cv{fill:#ffe360;}.cw{fill:#ffe361;}.cx{fill:#ffe462;}.cy{fill:#ffe463;}.cz{fill:#ffe464;}.da{fill:#ffe565;}.db{fill:#ffe566;}.dc{fill:#ffe667;}.dd{fill:#ffe668;}.de{fill:#ffe669;}.df{fill:#ffe769;}.dg{fill:#ffe76a;}.dh{fill:#ffe76b;}.di{fill:#ffe86b;}.dj{fill:#ffe86c;}.dk{fill:#ffe86d;}.dl{fill:#ffe96e;}.dm{fill:#ffe96f;}.dn{fill:#ffe970;}.do{fill:#ffea70;}.dp{fill:#ffea71;}.dq{fill:#ffac00;}.dr{fill:#ffda26;}.ds{fill:#ff8d00;}.du{fill:#001d3e;}</style><radialGradient id="a" cx="0.5" cy="0.5" r="0.5" gradientTransform="translate(0.001)" gradientUnits="objectBoundingBox"><stop offset="0" stop-color="#ff9a96"/><stop offset="0.21" stop-color="#ff9490"/><stop offset="0.5" stop-color="#ff827e"/><stop offset="0.83" stop-color="#ff6560"/><stop offset="1" stop-color="#ff544f"/></radialGradient><radialGradient id="b" cx="0.464" cy="0.396" r="0.685" gradientTransform="translate(0.128 0.12) scale(0.723 0.7)" gradientUnits="objectBoundingBox"><stop offset="0" stop-color="#ff9a96"/><stop offset="0.23" stop-color="#ff8e8a"/><stop offset="0.64" stop-color="#ff6e69"/><stop offset="0.93" stop-color="#ff544f"/><stop offset="0.98" stop-color="#fb4135"/></radialGradient><clipPath id="c"><ellipse class="a" cx="10.918" cy="10.861" rx="10.918" ry="10.861"/></clipPath></defs><g class="b" transform="translate(0 0)"><g transform="translate(3.335 25.157)"><path class="c" d="M29.339,83.92s17.021-8.26,33.964,0c0,0,2.572-4.874,12.786-7.02,0,0,5.9,6.111,1.746,18.748,0,0,12.536,17.666-.085,36.679l-4.482,15.611s-.418,1.737-1.911,1.737H65.23s-1.592-.507-1.743-1.9-.306-3.248-.306-3.248a39.006,39.006,0,0,1-33.115,0l-.395,3.347s-.358,1.806-1.874,1.806H21.246a2.448,2.448,0,0,1-1.315-1.806c-.24-1.351-4.841-16.828-4.841-16.828s-11.135-16.38,0-33.666c0,0-5.623-8.646.066-20.476C15.156,76.9,23.578,77.459,29.339,83.92Z" transform="translate(-10.141 -76.9)"/><path class="d" d="M91.842,159.313a32.092,32.092,0,0,1-3.992,28.33l-4.482,15.6s-.418,1.734-1.911,1.734H75.33s-1.592-.507-1.743-1.9-.306-3.245-.306-3.245a39.02,39.02,0,0,1-33.115,0l-.395,3.347s-.358,1.8-1.874,1.8H31.346a2.438,2.438,0,0,1-1.315-1.8c-.24-1.351-4.841-16.828-4.841-16.828s2.825,5.009,4.676,5.774c0,0,22.546,8.159,37.489.615C91.487,180.586,91.033,156.771,91.842,159.313Z" transform="translate(-20.241 -132.225)"/><g transform="translate(12.233 22.455)"><rect class="e" width="48.999" height="40.892"/><ellipse class="f" cx="14.463" cy="10.406" rx="14.463" ry="10.406" transform="translate(9.964 9.624)"/><ellipse class="g" cx="1.187" cy="2.139" rx="1.187" ry="2.139" transform="translate(17.926 17.263)"/><ellipse class="g" cx="1.187" cy="2.139" rx="1.187" ry="2.139" transform="translate(28.63 17.263)"/></g><g transform="translate(18.774 20.436)"><ellipse class="h" cx="3.427" cy="3.409" rx="3.427" ry="3.409"/><ellipse class="i" cx="1.286" cy="1.279" rx="1.286" ry="1.279" transform="translate(1.513 1.279)"/></g><g transform="translate(47.696 20.436)"><ellipse class="h" cx="3.427" cy="3.409" rx="3.427" ry="3.409"/><ellipse class="i" cx="1.286" cy="1.279" rx="1.286" ry="1.279" transform="translate(1.473 1.279)"/></g><g transform="translate(3.518 2.362)"><path class="j" d="M47.736,99.49a8.277,8.277,0,0,1,.138,3.072,61.267,61.267,0,0,0-8.971,3,26.306,26.306,0,0,0-8.024,5.718c-6.949,7.2-9.556,18.366-4.916,27.306a.14.14,0,0,1-.055.174.142.142,0,0,1-.181-.027,25.97,25.97,0,0,1-3.022-4.76c-5.232-11.384,1.181-24.251,11.313-30.385A34.66,34.66,0,0,1,47.17,99.333a.634.634,0,0,1,.559.131A.091.091,0,0,1,47.736,99.49Z" transform="translate(-20.838 -94.344)"/><path class="k" d="M89.395,181.79s-6.482,3.523-7.935,8.087C81.46,189.877,80.509,184.149,89.395,181.79Z" transform="translate(-61.504 -149.838)"/><path class="j" d="M27.114,84.12l1.944.965S25.068,87.352,24.6,95.354C24.6,95.354,23.158,90.535,27.114,84.12Z" transform="translate(-23.19 -84.12)"/></g></g><g transform="translate(27.091)"><ellipse class="l" cx="12.865" cy="12.798" rx="12.865" ry="12.798"/><g transform="translate(1.947 1.937)"><g class="m"><rect class="n" width="21.839" height="21.725" transform="translate(-0.003 0)"/><path class="n" d="M108.289,13.186A10.926,10.926,0,0,1,86.67,15.378h.457V10.991H86.67a10.718,10.718,0,0,1,.638-2.038A10.885,10.885,0,0,1,91.264,4.18v.494h12.21V4.18A10.99,10.99,0,0,1,105.089,5.5,10.8,10.8,0,0,1,108.289,13.186Z" transform="translate(-87.206 -4.749)"/><path class="o" d="M108.412,13.348a10.831,10.831,0,0,1-20.793,4.191A10.428,10.428,0,0,1,87,15.52h.362V11.179H87a10.547,10.547,0,0,1,.631-2.022,10.769,10.769,0,0,1,2.305-3.422,11.027,11.027,0,0,1,1.6-1.309v.409h12.1V4.42a11.026,11.026,0,0,1,1.6,1.309A10.705,10.705,0,0,1,108.412,13.348Z" transform="translate(-87.428 -4.911)"/><path class="p" d="M108.034,13.5A10.723,10.723,0,1,1,91.308,4.65v.327h12V4.65a10.679,10.679,0,0,1,4.729,8.833Z" transform="translate(-87.145 -5.065)"/><path class="q" d="M108.162,13.677A10.612,10.612,0,1,1,91.591,4.91v.255h11.885V4.91A10.842,10.842,0,0,1,105.051,6.2,10.509,10.509,0,0,1,108.162,13.677Z" transform="translate(-87.372 -5.24)"/><path class="r" d="M108.276,13.839A10.513,10.513,0,1,1,90.294,6.432,10.841,10.841,0,0,1,91.853,5.15v.177h11.779V5.15a10.839,10.839,0,0,1,1.559,1.282,10.418,10.418,0,0,1,3.085,7.406Z" transform="translate(-87.581 -5.402)"/><path class="s" d="M108.335,14.007A10.427,10.427,0,1,1,90.518,6.666,10.627,10.627,0,0,1,92.063,5.4v.095h11.668V5.4A10.362,10.362,0,0,1,108.335,14.007Z" transform="translate(-87.736 -5.57)"/><path class="t" d="M108.45,14.169A10.326,10.326,0,1,1,92.336,5.64v.016H103.9V5.64A10.427,10.427,0,0,1,105.427,6.9a10.225,10.225,0,0,1,3.022,7.272Z" transform="translate(-87.949 -5.732)"/><path class="u" d="M108.535,13.287A10.234,10.234,0,1,1,92.566,4.84c.27-.183.552-.353.842-.51v.445h9.767V4.33c.289.157.572.327.845.51a10.405,10.405,0,0,1,1.516,1.243A10.137,10.137,0,0,1,108.535,13.287Z" transform="translate(-88.13 -4.85)"/><path class="v" d="M108.638,13.455a10.136,10.136,0,1,1-15.8-8.368c.27-.18.549-.35.835-.507v.363h9.675V4.58c.286.157.566.327.835.507a10.23,10.23,0,0,1,1.48,1.233A10.03,10.03,0,0,1,108.638,13.455Z" transform="translate(-88.331 -5.018)"/><path class="w" d="M108.739,13.63A10.039,10.039,0,1,1,91.583,6.561a10.221,10.221,0,0,1,1.486-1.22q.4-.272.829-.5v.278h9.583V4.84q.424.232.829.5a10.223,10.223,0,0,1,1.486,1.22A9.952,9.952,0,0,1,108.739,13.63Z" transform="translate(-88.528 -5.193)"/><path class="x" d="M108.838,13.805A9.967,9.967,0,1,1,93.32,5.6c.263-.18.539-.327.819-.5v.193h9.491V5.1a9.391,9.391,0,0,1,.819.5,9.885,9.885,0,0,1,4.39,8.208Z" transform="translate(-88.722 -5.368)"/><path class="y" d="M108.9,13.132A9.859,9.859,0,1,1,95.2,4.1v.52h7.675V4.1A9.813,9.813,0,0,1,108.9,13.132Z" transform="translate(-88.881 -4.695)"/><path class="z" d="M109.051,13.314A9.75,9.75,0,1,1,95.492,4.37V4.8h7.6V4.37A9.712,9.712,0,0,1,109.051,13.314Z" transform="translate(-89.129 -4.877)"/><path class="aa" d="M109.15,13.5A9.655,9.655,0,1,1,95.723,4.64v.343h7.524V4.64a9.63,9.63,0,0,1,5.919,8.856Z" transform="translate(-89.324 -5.059)"/><path class="ab" d="M109.24,13.677A9.56,9.56,0,1,1,95.951,4.91v.255H103.4V4.91a9.519,9.519,0,0,1,5.844,8.767Z" transform="translate(-89.512 -5.24)"/><path class="ac" d="M109.352,13.859A9.461,9.461,0,1,1,96.2,5.18v.167h7.373V5.18A9.434,9.434,0,0,1,109.352,13.859Z" transform="translate(-89.72 -5.422)"/><path class="ad" d="M109.455,14.041A9.363,9.363,0,1,1,96.436,5.45v.079h7.3V5.45a9.329,9.329,0,0,1,5.722,8.591Z" transform="translate(-89.921 -5.604)"/><path class="ae" d="M109.554,13.112A9.3,9.3,0,1,1,98.41,4.07V4.6h3.739V4.073a9.244,9.244,0,0,1,7.406,9.039Z" transform="translate(-90.116 -4.675)"/><path class="af" d="M109.643,13.314A9.172,9.172,0,1,1,93.97,6.866,9.292,9.292,0,0,1,96.89,4.9a9.193,9.193,0,0,1,1.72-.53V4.8h3.7V4.37a9.172,9.172,0,0,1,7.33,8.944Z" transform="translate(-90.3 -4.877)"/><ellipse class="ag" cx="9.083" cy="9.036" rx="9.083" ry="9.036" transform="translate(1.079 -0.599)"/><ellipse class="ah" cx="8.988" cy="8.941" rx="8.988" ry="8.941" transform="translate(1.174 -0.504)"/><ellipse class="ai" cx="8.889" cy="8.843" rx="8.889" ry="8.843" transform="translate(1.273 -0.406)"/><ellipse class="aj" cx="8.794" cy="8.748" rx="8.794" ry="8.748" transform="translate(1.368 -0.311)"/><ellipse class="ak" cx="8.698" cy="8.653" rx="8.698" ry="8.653" transform="translate(1.463 -0.216)"/><ellipse class="al" cx="8.599" cy="8.555" rx="8.599" ry="8.555" transform="translate(1.562 -0.118)"/><ellipse class="am" cx="8.504" cy="8.46" rx="8.504" ry="8.46" transform="translate(1.657 -0.023)"/><ellipse class="an" cx="8.405" cy="8.362" rx="8.405" ry="8.362" transform="translate(1.756 0.075)"/><ellipse class="ao" cx="8.31" cy="8.267" rx="8.31" ry="8.267" transform="translate(1.851 0.17)"/><ellipse class="ap" cx="8.215" cy="8.172" rx="8.215" ry="8.172" transform="translate(1.947 0.265)"/><ellipse class="aq" cx="8.116" cy="8.074" rx="8.116" ry="8.074" transform="translate(2.045 0.363)"/><ellipse class="ar" cx="8.021" cy="7.979" rx="8.021" ry="7.979" transform="translate(2.141 0.458)"/><ellipse class="as" cx="7.925" cy="7.884" rx="7.925" ry="7.884" transform="translate(2.236 0.553)"/><ellipse class="at" cx="7.827" cy="7.786" rx="7.827" ry="7.786" transform="translate(2.335 0.651)"/><ellipse class="au" cx="7.731" cy="7.691" rx="7.731" ry="7.691" transform="translate(2.43 0.746)"/><ellipse class="av" cx="7.633" cy="7.593" rx="7.633" ry="7.593" transform="translate(2.529 0.844)"/><ellipse class="aw" cx="7.537" cy="7.498" rx="7.537" ry="7.498" transform="translate(2.624 0.939)"/><ellipse class="ax" cx="7.442" cy="7.403" rx="7.442" ry="7.403" transform="translate(2.72 1.034)"/><ellipse class="ay" cx="7.343" cy="7.305" rx="7.343" ry="7.305" transform="translate(2.818 1.132)"/><ellipse class="az" cx="7.248" cy="7.21" rx="7.248" ry="7.21" transform="translate(2.914 1.227)"/><ellipse class="ba" cx="7.149" cy="7.112" rx="7.149" ry="7.112" transform="translate(3.012 1.325)"/><ellipse class="bb" cx="7.054" cy="7.017" rx="7.054" ry="7.017" transform="translate(3.108 1.42)"/><ellipse class="bc" cx="6.959" cy="6.922" rx="6.959" ry="6.922" transform="translate(3.203 1.515)"/><ellipse class="bd" cx="6.86" cy="6.824" rx="6.86" ry="6.824" transform="translate(3.302 1.613)"/><ellipse class="be" cx="6.764" cy="6.729" rx="6.764" ry="6.729" transform="translate(3.397 1.708)"/><ellipse class="bf" cx="6.669" cy="6.634" rx="6.669" ry="6.634" transform="translate(3.492 1.803)"/><ellipse class="bg" cx="6.57" cy="6.536" rx="6.57" ry="6.536" transform="translate(3.591 1.901)"/><ellipse class="bh" cx="6.475" cy="6.441" rx="6.475" ry="6.441" transform="translate(3.686 1.996)"/><ellipse class="bi" cx="6.376" cy="6.343" rx="6.376" ry="6.343" transform="translate(3.785 2.094)"/><ellipse class="bj" cx="6.281" cy="6.248" rx="6.281" ry="6.248" transform="translate(3.88 2.189)"/><ellipse class="bk" cx="6.186" cy="6.153" rx="6.186" ry="6.153" transform="translate(3.976 2.283)"/><ellipse class="bl" cx="6.087" cy="6.055" rx="6.087" ry="6.055" transform="translate(4.074 2.382)"/><ellipse class="bm" cx="5.992" cy="5.96" rx="5.992" ry="5.96" transform="translate(4.17 2.476)"/><ellipse class="bn" cx="5.893" cy="5.862" rx="5.893" ry="5.862" transform="translate(4.269 2.575)"/><ellipse class="bo" cx="5.798" cy="5.767" rx="5.798" ry="5.767" transform="translate(4.364 2.669)"/><ellipse class="bp" cx="5.702" cy="5.673" rx="5.702" ry="5.673" transform="translate(4.459 2.764)"/><ellipse class="bq" cx="5.604" cy="5.574" rx="5.604" ry="5.574" transform="translate(4.558 2.862)"/><ellipse class="br" cx="5.508" cy="5.48" rx="5.508" ry="5.48" transform="translate(4.653 2.957)"/><ellipse class="bs" cx="5.413" cy="5.385" rx="5.413" ry="5.385" transform="translate(4.749 3.052)"/><ellipse class="bt" cx="5.314" cy="5.287" rx="5.314" ry="5.287" transform="translate(4.847 3.15)"/><ellipse class="bu" cx="5.219" cy="5.192" rx="5.219" ry="5.192" transform="translate(4.943 3.245)"/><ellipse class="bv" cx="5.12" cy="5.094" rx="5.12" ry="5.094" transform="translate(5.041 3.343)"/><ellipse class="bw" cx="5.025" cy="4.999" rx="5.025" ry="4.999" transform="translate(5.137 3.438)"/><ellipse class="bx" cx="4.929" cy="4.904" rx="4.929" ry="4.904" transform="translate(5.232 3.533)"/><ellipse class="by" cx="4.831" cy="4.806" rx="4.831" ry="4.806" transform="translate(5.331 3.631)"/><ellipse class="bz" cx="4.735" cy="4.711" rx="4.735" ry="4.711" transform="translate(5.426 3.726)"/><ellipse class="ca" cx="4.637" cy="4.613" rx="4.637" ry="4.613" transform="translate(5.525 3.824)"/><ellipse class="cb" cx="4.541" cy="4.518" rx="4.541" ry="4.518" transform="translate(5.62 3.919)"/><ellipse class="cc" cx="4.446" cy="4.423" rx="4.446" ry="4.423" transform="translate(5.715 4.014)"/><ellipse class="cd" cx="4.347" cy="4.325" rx="4.347" ry="4.325" transform="translate(5.814 4.112)"/><ellipse class="ce" cx="4.252" cy="4.23" rx="4.252" ry="4.23" transform="translate(5.909 4.207)"/><ellipse class="cf" cx="4.157" cy="4.135" rx="4.157" ry="4.135" transform="translate(6.005 4.302)"/><ellipse class="cg" cx="4.058" cy="4.037" rx="4.058" ry="4.037" transform="translate(6.103 4.4)"/><ellipse class="ch" cx="3.963" cy="3.942" rx="3.963" ry="3.942" transform="translate(6.199 4.495)"/><ellipse class="ci" cx="3.864" cy="3.844" rx="3.864" ry="3.844" transform="translate(6.298 4.593)"/><ellipse class="cj" cx="3.769" cy="3.749" rx="3.769" ry="3.749" transform="translate(6.393 4.688)"/><ellipse class="ck" cx="3.673" cy="3.654" rx="3.673" ry="3.654" transform="translate(6.488 4.783)"/><ellipse class="cl" cx="3.575" cy="3.556" rx="3.575" ry="3.556" transform="translate(6.587 4.881)"/><ellipse class="cm" cx="3.479" cy="3.461" rx="3.479" ry="3.461" transform="translate(6.682 4.976)"/><ellipse class="cm" cx="3.381" cy="3.363" rx="3.381" ry="3.363" transform="translate(6.781 5.074)"/><ellipse class="cn" cx="3.285" cy="3.268" rx="3.285" ry="3.268" transform="translate(6.876 5.169)"/><ellipse class="co" cx="3.19" cy="3.173" rx="3.19" ry="3.173" transform="translate(6.972 5.264)"/><ellipse class="cp" cx="3.091" cy="3.075" rx="3.091" ry="3.075" transform="translate(7.07 5.362)"/><ellipse class="cq" cx="2.996" cy="2.98" rx="2.996" ry="2.98" transform="translate(7.166 5.457)"/><ellipse class="cr" cx="2.9" cy="2.885" rx="2.9" ry="2.885" transform="translate(7.261 5.552)"/><ellipse class="cs" cx="2.802" cy="2.787" rx="2.802" ry="2.787" transform="translate(7.36 5.65)"/><ellipse class="ct" cx="2.706" cy="2.692" rx="2.706" ry="2.692" transform="translate(7.455 5.745)"/><ellipse class="cu" cx="2.608" cy="2.594" rx="2.608" ry="2.594" transform="translate(7.554 5.843)"/><ellipse class="cv" cx="2.512" cy="2.499" rx="2.512" ry="2.499" transform="translate(7.649 5.938)"/><ellipse class="cv" cx="2.417" cy="2.404" rx="2.417" ry="2.404" transform="translate(7.744 6.032)"/><ellipse class="cw" cx="2.318" cy="2.306" rx="2.318" ry="2.306" transform="translate(7.843 6.131)"/><ellipse class="cx" cx="2.223" cy="2.211" rx="2.223" ry="2.211" transform="translate(7.938 6.225)"/><ellipse class="cy" cx="2.124" cy="2.113" rx="2.124" ry="2.113" transform="translate(8.037 6.324)"/><ellipse class="cz" cx="2.029" cy="2.018" rx="2.029" ry="2.018" transform="translate(8.133 6.418)"/><ellipse class="da" cx="1.934" cy="1.924" rx="1.934" ry="1.924" transform="translate(8.228 6.513)"/><ellipse class="da" cx="1.835" cy="1.825" rx="1.835" ry="1.825" transform="translate(8.327 6.611)"/><ellipse class="db" cx="1.74" cy="1.731" rx="1.74" ry="1.731" transform="translate(8.422 6.706)"/><ellipse class="dc" cx="1.644" cy="1.636" rx="1.644" ry="1.636" transform="translate(8.517 6.801)"/><ellipse class="dd" cx="1.546" cy="1.538" rx="1.546" ry="1.538" transform="translate(8.616 6.899)"/><ellipse class="de" cx="1.45" cy="1.443" rx="1.45" ry="1.443" transform="translate(8.711 6.994)"/><ellipse class="df" cx="1.352" cy="1.345" rx="1.352" ry="1.345" transform="translate(8.81 7.092)"/><ellipse class="dg" cx="1.256" cy="1.25" rx="1.256" ry="1.25" transform="translate(8.905 7.187)"/><ellipse class="dh" cx="1.161" cy="1.155" rx="1.161" ry="1.155" transform="translate(9.001 7.282)"/><ellipse class="di" cx="1.062" cy="1.057" rx="1.062" ry="1.057" transform="translate(9.099 7.38)"/><ellipse class="dj" cx="0.967" cy="0.962" rx="0.967" ry="0.962" transform="translate(9.195 7.475)"/><ellipse class="dk" cx="0.868" cy="0.864" rx="0.868" ry="0.864" transform="translate(9.293 7.573)"/><ellipse class="dk" cx="0.773" cy="0.769" rx="0.773" ry="0.769" transform="translate(9.389 7.668)"/><ellipse class="dl" cx="0.677" cy="0.674" rx="0.677" ry="0.674" transform="translate(9.484 7.763)"/><ellipse class="dm" cx="0.579" cy="0.576" rx="0.579" ry="0.576" transform="translate(9.583 7.861)"/><ellipse class="dm" cx="0.483" cy="0.481" rx="0.483" ry="0.481" transform="translate(9.678 7.956)"/><ellipse class="dn" cx="0.388" cy="0.386" rx="0.388" ry="0.386" transform="translate(9.773 8.051)"/><ellipse class="do" cx="0.289" cy="0.288" rx="0.289" ry="0.288" transform="translate(9.872 8.149)"/><ellipse class="dp" cx="0.194" cy="0.193" rx="0.194" ry="0.193" transform="translate(9.968 8.244)"/><ellipse class="dp" cx="0.095" cy="0.095" rx="0.095" ry="0.095" transform="translate(10.066 8.342)"/></g></g><path class="dq" d="M98.58,27.317A11.169,11.169,0,1,1,109.8,16.15,11.2,11.2,0,0,1,98.58,27.317Zm0-21.725A10.56,10.56,0,1,0,109.192,16.15,10.588,10.588,0,0,0,98.58,5.592Z" transform="translate(-85.716 -3.351)"/><path class="n" d="M108.889,11.72a10.492,10.492,0,0,1-1.365,13.062,10.63,10.63,0,0,1-13.1,1.588A10.568,10.568,0,1,0,108.889,11.72Z" transform="translate(-90.461 -7.886)"/><g transform="translate(3.163 3.17)"><path class="dr" d="M92.692,20.311a9.65,9.65,0,0,1,17.281-5.846,9.662,9.662,0,0,0-17.067.748,9.547,9.547,0,0,0,1.065,9.878A9.5,9.5,0,0,1,92.692,20.311Z" transform="translate(-91.998 -9.689)"/></g><g transform="translate(9.114 6.517)"><path class="dq" d="M118.73,26.018a1.786,1.786,0,0,0,.875-.749,2.235,2.235,0,0,0,.329-1.188,2.538,2.538,0,0,0-.783-1.963A3.375,3.375,0,0,0,116.8,21.4h.125l-.21-1.155a.387.387,0,0,0-.381-.327h-1.315l-.263,1.472h-2.124a.66.66,0,0,0-.49.157.652.652,0,0,0-.148.465v8.4a.623.623,0,0,0,.148.458.66.66,0,0,0,.49.15h2.124l.21,1.171a.364.364,0,0,0,.358.3h1.019a.364.364,0,0,0,.358-.3l.214-1.171H116.8a4.208,4.208,0,0,0,1.884-.376,2.564,2.564,0,0,0,1.138-1.027,2.822,2.822,0,0,0,.378-1.456A2.027,2.027,0,0,0,118.73,26.018ZM114.337,23.1H116.4a1.386,1.386,0,0,1,.9.249A1.254,1.254,0,0,1,117.264,25a1.261,1.261,0,0,1-.881.281H114.32Zm3.223,5.866a1.207,1.207,0,0,1-.934.327h-2.3V26.882H116.5a1.492,1.492,0,0,1,.987.3,1.145,1.145,0,0,1,.355.913A1.232,1.232,0,0,1,117.56,28.969Z" transform="translate(-111.368 -19.92)"/><path class="ds" d="M116.86,26.038a1.773,1.773,0,0,0,.875-.749,2.236,2.236,0,0,0,.329-1.188,2.538,2.538,0,0,0-.783-1.963,3.375,3.375,0,0,0-2.348-.716h.118l-.22-1.21a.328.328,0,0,0-.329-.262h-1.1a.328.328,0,0,0-.329.262l-.217,1.21h-2.124a.66.66,0,0,0-.49.157.652.652,0,0,0-.148.465v8.391a.623.623,0,0,0,.148.458.66.66,0,0,0,.49.15h2.124l.21,1.181a.355.355,0,0,0,.349.291h1.039a.355.355,0,0,0,.349-.288l.214-1.184H114.9a4.208,4.208,0,0,0,1.884-.376,2.564,2.564,0,0,0,1.171-1.037,2.821,2.821,0,0,0,.378-1.456A2.025,2.025,0,0,0,116.86,26.038Zm-4.393-2.915h2.062a1.387,1.387,0,0,1,.9.249,1.28,1.28,0,0,1-.023,1.649,1.257,1.257,0,0,1-.881.281h-2.062Zm3.223,5.866a1.207,1.207,0,0,1-.934.327h-2.3V26.9h2.177a1.492,1.492,0,0,1,.987.3,1.135,1.135,0,0,1,.365.913A1.232,1.232,0,0,1,115.689,28.989Z" transform="translate(-110.093 -19.94)"/></g></g><g transform="translate(0 79.776)"><path class="dt" d="M58.535,245.777a1.667,1.667,0,0,1,1.644,1.587.307.307,0,0,0,.141.272,1.059,1.059,0,0,0,.358.095,4.469,4.469,0,0,0,.783.046h3.831a1.03,1.03,0,1,1,0,2.061H60.268c-1.417,0-3.262-.586-3.39-2.27a1.67,1.67,0,0,1,1.657-1.789m-36.193.157a.541.541,0,0,1,.539.543.5.5,0,0,1-.03.17l-.138.415a.541.541,0,0,0,.074.486.547.547,0,0,0,.439.227h3.289a1.03,1.03,0,1,1,0,2.061H20.06a.544.544,0,0,1-.436-.218.537.537,0,0,1-.083-.479l.161-.55a.541.541,0,0,0-.084-.476.547.547,0,0,0-.432-.221h0a.923.923,0,0,1-.651-.272.913.913,0,0,1-.266-.651v-.059a.984.984,0,0,1,.987-.981h3.1m11.395,5.1a7.334,7.334,0,0,1,4.341,1.351,5.225,5.225,0,0,1,2.082,4.22A5.542,5.542,0,0,1,39,260.1a6.344,6.344,0,0,1-4.933,2.054,7.6,7.6,0,0,1-2.407-.383c-1.6-.54-3.2-2.182-2.631-4.017a2.953,2.953,0,0,1,1.832-1.783,4.093,4.093,0,0,1,1.391-.258,1.957,1.957,0,0,1,1.24.363.952.952,0,0,1,.168,1.25,1.87,1.87,0,0,1-1.417.654.654.654,0,0,0-.454,1.109,2.265,2.265,0,0,0,1.881.68h.1a3.46,3.46,0,0,0,2.457-.965,3.193,3.193,0,0,0-1.342-5.12,3.769,3.769,0,0,0-1.108-.157,5.4,5.4,0,0,0-.987.1c-.687.137-1.315.507-2.013.605a1.291,1.291,0,0,1-1.283-1.786,1.822,1.822,0,0,1,.776-.654,8.043,8.043,0,0,1,3.473-.775m26.436.039a7.769,7.769,0,0,1,3.427.615,1.168,1.168,0,0,1,.247,1.963,1.142,1.142,0,0,1-.72.255,1.215,1.215,0,0,1-.467-.095,6.589,6.589,0,0,0-2.457-.461c-.592,0-1.851.1-1.851.824,0,.775,1.368.923,2.118,1.044,2.387.363,4.722,1.188,4.722,3.513,0,2.4-2.549,3.32-5.1,3.32a7.6,7.6,0,0,1-4.275-1.2,1.164,1.164,0,0,1-.105-1.793l.132-.121a1.207,1.207,0,0,1,.816-.327,1.116,1.116,0,0,1,.608.18,5.377,5.377,0,0,0,2.835.857c.7,0,1.957-.147,1.957-.981,0-.919-1.26-1.04-2.092-1.187-2.2-.327-4.749-.847-4.749-3.32,0-2.182,2.6-3.1,4.962-3.1m-37.91,0a7.77,7.77,0,0,1,3.427.615,1.168,1.168,0,0,1,.243,1.963,1.128,1.128,0,0,1-.72.255,1.229,1.229,0,0,1-.467-.095,6.564,6.564,0,0,0-2.457-.461c-.589,0-1.848.1-1.848.824,0,.775,1.365.923,2.118,1.044,2.371.389,4.719,1.214,4.719,3.54,0,2.4-2.545,3.32-5.094,3.32a7.6,7.6,0,0,1-4.275-1.2,1.158,1.158,0,0,1-.105-1.793l.132-.121a1.207,1.207,0,0,1,.793-.314,1.119,1.119,0,0,1,.612.18,5.377,5.377,0,0,0,2.835.857c.7,0,1.973-.147,1.973-.981,0-.919-1.26-1.04-2.091-1.188-2.2-.327-4.749-.847-4.749-3.32,0-2.182,2.6-3.1,4.962-3.1m54.188.049A1.583,1.583,0,0,1,78,252.758v4.426c0,2.107-1.112,4.871-5.633,4.871s-5.614-2.774-5.614-4.874v-4.426a1.572,1.572,0,0,1,.422-1.133,1.588,1.588,0,0,1,1.1-.5h.026a1.583,1.583,0,0,1,1.529,1.636v4.4c0,1.577,1.315,2.126,2.539,2.126,1.388,0,2.565-.55,2.565-2.126v-4.4a1.572,1.572,0,0,1,.422-1.133,1.588,1.588,0,0,1,1.1-.5m-24.812,0a1.64,1.64,0,0,1,1.621,1.636v5.1c0,3.782-3.351,4.194-4.8,4.194a4.5,4.5,0,0,1-3.512-1.452,1.361,1.361,0,0,1-1.358,1.354,1.679,1.679,0,0,1-1.674-1.685v-7.524a1.64,1.64,0,0,1,1.625-1.636h.026a1.64,1.64,0,0,1,1.621,1.636v4.246a2.489,2.489,0,0,0,2.549,2.689h.191c1.217,0,2.088-.461,2.088-1.845v-5.081a1.64,1.64,0,0,1,1.625-1.636m-37.867,0a1.613,1.613,0,0,1,1.578,1.636v4.413c0,2.107-.155,4.871-4.137,4.871a2.591,2.591,0,0,1-2.575-1.214h0a2.525,2.525,0,0,1-2.549,1.214c-3.982,0-4.137-2.764-4.137-4.871v-4.4a1.61,1.61,0,0,1,1.575-1.636,1.269,1.269,0,0,1,1.368,1.423v4.462c0,1.286.6,1.832,1.19,1.835h0a1.279,1.279,0,0,0,1.26-1.25v-4.03a1.4,1.4,0,0,1,1.19-1.43h.115a1.338,1.338,0,0,1,.943.407,1.324,1.324,0,0,1,.372.953v4.115a1.29,1.29,0,0,0,1.125,1.289h0c.658,0,1.315-.707,1.315-1.891v-4.465a1.273,1.273,0,0,1,1.368-1.43m44.744-7.262h0a3.626,3.626,0,0,0-2.627,1.153,3.587,3.587,0,0,0-.955,2.694,3.948,3.948,0,0,0,1.01,2.382,5.616,5.616,0,0,0-1.256.88,3.551,3.551,0,0,0-6.62,1.786v5h-.28c-.483-.023-.691-.134-.691-.772v-4.23a3.567,3.567,0,0,0-6.959-1.089,6.8,6.8,0,0,0-.934-.824,9.3,9.3,0,0,0-5.489-1.727h0a9.971,9.971,0,0,0-4.311.981,3.242,3.242,0,0,0-.329.18,2.931,2.931,0,0,0-.01-2.942,2.963,2.963,0,0,0-2.565-1.465H24.729a2.471,2.471,0,0,0-2.387-1.842h-3.1a2.9,2.9,0,0,0-2.9,2.9v.059a2.848,2.848,0,0,0,1.253,2.355,2.476,2.476,0,0,0,.191.91,5.733,5.733,0,0,0-.987.726,3.5,3.5,0,0,0-3.025-1.763,3.145,3.145,0,0,0-2.993,1.842,3.183,3.183,0,0,0-2.141-.824H8.343a3.168,3.168,0,0,0-1.842.828,3.145,3.145,0,0,0-3-1.858A3.539,3.539,0,0,0,0,252.768v4.413c0,1.678,0,6.791,6.067,6.791a5.428,5.428,0,0,0,2.562-.54,5.506,5.506,0,0,0,2.585.54c2.6,0,4.088-.942,4.933-2.149a3.062,3.062,0,0,0,.625.6,9.627,9.627,0,0,0,5.4,1.551c2.736,0,4.854-.847,6.018-2.29A6.46,6.46,0,0,0,31.03,263.6a9.559,9.559,0,0,0,3.025.484,8.3,8.3,0,0,0,6.173-2.476,3.617,3.617,0,0,0,3.348,2.29,3.271,3.271,0,0,0,1.825-.556,7.2,7.2,0,0,0,3.045.654,6.779,6.779,0,0,0,5.492-2.29,3.027,3.027,0,0,0,.743.746,9.627,9.627,0,0,0,5.4,1.551c2.848,0,5.025-.919,6.156-2.473a7.948,7.948,0,0,0,6.1,2.473c3.489,0,7.564-1.78,7.564-6.791v-4.456a3.437,3.437,0,0,0-1.662-3.157,3.475,3.475,0,0,0-3.582,0,3.437,3.437,0,0,0-1.662,3.157v4.4a1.061,1.061,0,0,1,0,.121,1.732,1.732,0,0,1-.628.088,1.322,1.322,0,0,1-.605-.115.571.571,0,0,1,0-.095v-4.4A3.509,3.509,0,0,0,68.3,249.2h-.076a2.681,2.681,0,0,0,.026-.4,2.952,2.952,0,0,0-2.96-2.944H61.738A3.583,3.583,0,0,0,58.535,243.86ZM27.34,254.983a3.208,3.208,0,0,0,.4-.468l.03.052a3.057,3.057,0,0,0,.6.756c-.109.1-.21.213-.309.327A5.092,5.092,0,0,0,27.34,255Z" transform="translate(0.001 -243.86)"/><path class="du" d="M12.578,275.773h-.023a2.522,2.522,0,0,1-2.549,1.217c-3.982,0-4.137-2.764-4.137-4.871v-4.413a1.61,1.61,0,0,1,1.575-1.636h0a1.269,1.269,0,0,1,1.368,1.423v4.462c0,1.286.6,1.829,1.19,1.835a1.279,1.279,0,0,0,1.269-1.25v-4.03a1.392,1.392,0,0,1,1.19-1.43,1.336,1.336,0,0,1,1.012.366,1.321,1.321,0,0,1,.409.991v4.115a1.29,1.29,0,0,0,1.125,1.289c.658,0,1.335-.7,1.335-1.894V267.49a1.273,1.273,0,0,1,1.368-1.43h0A1.613,1.613,0,0,1,19.29,267.7v4.413c0,2.107-.155,4.871-4.137,4.871A2.539,2.539,0,0,1,12.578,275.773Z" transform="translate(-3.939 -258.798)"/><path class="du" d="M61.33,268.461a1.156,1.156,0,0,1-1.187.157,6.605,6.605,0,0,0-2.457-.458c-.589,0-1.848.1-1.848.824,0,.775,1.365.919,2.118,1.044,2.387.363,4.735,1.188,4.735,3.513,0,2.4-2.545,3.321-5.094,3.321a7.6,7.6,0,0,1-4.275-1.2,1.158,1.158,0,0,1-.105-1.793l.132-.121a1.162,1.162,0,0,1,1.424-.144,5.373,5.373,0,0,0,2.835.854c.7,0,1.973-.144,1.973-.981,0-.923-1.26-1.044-2.092-1.187-2.2-.327-4.749-.847-4.749-3.32,0-2.182,2.6-3.1,4.962-3.1a7.769,7.769,0,0,1,3.427.615,1.168,1.168,0,0,1,.243,1.963Z" transform="translate(-35.396 -258.67)"/><path class="du" d="M176.546,268.461a1.156,1.156,0,0,1-1.187.157,6.642,6.642,0,0,0-2.457-.458c-.592,0-1.851.1-1.851.824,0,.775,1.368.919,2.118,1.044,2.387.363,4.722,1.188,4.722,3.513,0,2.4-2.549,3.321-5.1,3.321a7.6,7.6,0,0,1-4.275-1.2,1.164,1.164,0,0,1-.105-1.793l.132-.121a1.162,1.162,0,0,1,1.424-.144,5.374,5.374,0,0,0,2.835.854c.7,0,1.957-.144,1.957-.981,0-.923-1.259-1.044-2.091-1.187-2.2-.327-4.749-.847-4.749-3.32,0-2.182,2.6-3.1,4.962-3.1a7.769,7.769,0,0,1,3.427.615,1.168,1.168,0,0,1,.247,1.963Z" transform="translate(-112.699 -258.67)"/><path class="du" d="M56.523,250.2h3.1a.541.541,0,0,1,.539.543h0a.488.488,0,0,1-.03.17l-.138.415a.541.541,0,0,0,.074.486.547.547,0,0,0,.439.227H63.8a1.035,1.035,0,0,1,.734.3,1.024,1.024,0,0,1,.3.733h0a1.03,1.03,0,0,1-1.026,1.031H57.342a.543.543,0,0,1-.44-.22.538.538,0,0,1-.08-.483l.161-.553a.537.537,0,0,0-.084-.475.543.543,0,0,0-.432-.219h0a.924.924,0,0,1-.651-.272.914.914,0,0,1-.266-.651v-.059A.984.984,0,0,1,56.523,250.2Z" transform="translate(-37.282 -248.126)"/><path class="du" d="M99.167,271.366A5.542,5.542,0,0,1,98,274.87c-1.68,2.041-4.933,2.48-7.327,1.672-1.6-.543-3.2-2.185-2.631-4.017a3.286,3.286,0,0,1,4.462-1.678.949.949,0,0,1,.168,1.25,1.881,1.881,0,0,1-1.417.654.654.654,0,0,0-.454,1.112,2.346,2.346,0,0,0,1.973.677,3.456,3.456,0,0,0,2.457-.962,3.192,3.192,0,0,0-1.342-5.12,4.377,4.377,0,0,0-2.108-.056c-.687.134-1.315.507-2.013.605a1.2,1.2,0,0,1-1.283-1.773,1.822,1.822,0,0,1,.776-.654,7.828,7.828,0,0,1,7.814.572A5.225,5.225,0,0,1,99.167,271.366Z" transform="translate(-59.007 -258.624)"/><path class="du" d="M137.154,266.04a1.64,1.64,0,0,1,1.621,1.636v5.1c0,3.782-3.351,4.194-4.8,4.194a4.5,4.5,0,0,1-3.512-1.456h0a1.361,1.361,0,0,1-1.358,1.358h0a1.679,1.679,0,0,1-1.674-1.685v-7.524a1.64,1.64,0,0,1,1.625-1.636h.026a1.64,1.64,0,0,1,1.621,1.636v4.243a2.494,2.494,0,0,0,2.549,2.692c1.315.046,2.279-.389,2.279-1.842v-5.087a1.64,1.64,0,0,1,1.625-1.636Z" transform="translate(-85.524 -258.777)"/><path class="du" d="M203,272.112v-4.426a1.572,1.572,0,0,1,.422-1.133,1.588,1.588,0,0,1,1.1-.5h.026a1.584,1.584,0,0,1,1.529,1.636v4.4c0,1.577,1.315,2.127,2.539,2.127,1.388,0,2.565-.55,2.565-2.127v-4.4a1.572,1.572,0,0,1,.422-1.133,1.588,1.588,0,0,1,1.1-.5h0a1.584,1.584,0,0,1,1.529,1.636v4.426c0,2.107-1.112,4.871-5.633,4.871S203,274.212,203,272.112Z" transform="translate(-136.24 -258.791)"/><path class="du" d="M181.367,251.7h-3.831a4.474,4.474,0,0,1-.783-.046,1.06,1.06,0,0,1-.358-.095.307.307,0,0,1-.141-.272,1.646,1.646,0,0,0-3.078-.759,1.688,1.688,0,0,0-.224.962c.128,1.685,1.973,2.264,3.39,2.27h5.025a1.031,1.031,0,1,0,0-2.061Z" transform="translate(-116.073 -247.786)"/></g></g></svg>