<svg xmlns="http://www.w3.org/2000/svg" width="52" height="50.631" viewBox="0 0 52 50.631"><defs><style>.a{fill:none;stroke:#d4dde3;stroke-linecap:round;stroke-linejoin:round;stroke-width:2px;}</style></defs><g transform="translate(-421.725 -564.397)"><path class="a" d="M433.792,592.177v19.235s-11.067,2.767-11.067-9.617S433.792,592.177,433.792,592.177Z" transform="translate(0 -7.282)"/><path class="a" d="M476.4,592.177v19.235s11.066,2.767,11.066-9.617S476.4,592.177,476.4,592.177Z" transform="translate(-14.74 -7.282)"/><path class="a" d="M431.981,584.631S430.672,565.4,450.364,565.4c11.325,0,15.791,6.441,17.54,11.916" transform="translate(-2.537)"/><path class="a" d="M472.52,618.794c.168,2.858-.566,5.871-3.726,6.587a38.085,38.085,0,0,1-6.52.412" transform="translate(-10.861 -14.664)"/><circle class="a" cx="3.574" cy="3.574" r="3.574" transform="translate(444.052 606.88)"/></g></svg>