<svg xmlns="http://www.w3.org/2000/svg" width="50.818" height="50" viewBox="0 0 50.818 50"><defs><style>.a{fill:none;stroke:#d4dde3;stroke-linecap:round;stroke-linejoin:round;stroke-width:2px;}</style></defs><g transform="translate(-41.991 -663.201)"><path class="a" d="M54.789,720.722H87.755a3.646,3.646,0,0,0,3.646-3.646V690.355L70.916,707.391a5.5,5.5,0,0,1-7.03,0L43.4,690.355v26.721a3.646,3.646,0,0,0,3.646,3.646h2.476" transform="translate(0 -8.521)"/><path class="a" d="M51.67,687.713v-17.2a2.494,2.494,0,0,1,2.494-2.494H86.03a2.494,2.494,0,0,1,2.494,2.494v17.2" transform="translate(-2.694 -1.243)"/><line class="a" x2="21.306" transform="translate(56.748 676.14)"/><line class="a" x2="21.306" transform="translate(56.748 684.589)"/><line class="a" x2="4.714" transform="translate(73.339 680.364)"/><line class="a" x2="13.163" transform="translate(56.748 680.364)"/><line class="a" x2="21.306" transform="translate(56.748 688.935)"/><line class="a" y1="4.714" x2="5.575" transform="translate(43.401 677.119)"/><line class="a" x1="5.571" y1="4.714" transform="translate(85.829 677.119)"/><path class="a" d="M70.19,666.772a8.332,8.332,0,0,1,5.944-2.571,7.244,7.244,0,0,1,5.628,2.571" transform="translate(-8.728)"/></g></svg>