<svg xmlns="http://www.w3.org/2000/svg" width="52.812" height="50.393" viewBox="0 0 52.812 50.393"><defs><style>.a{fill:#fff;}.b{fill:none;stroke:#fff;stroke-linecap:round;stroke-linejoin:round;stroke-width:2px;}</style></defs><g transform="translate(-306.511 -555.27)"><g transform="translate(313.91 565.121)"><path class="a" d="M321.133,582.379c-.14,0-.227-.027-.26-.08a.536.536,0,0,1-.049-.266v-5.985a1.067,1.067,0,0,1,.037-.321c.025-.074.115-.112.272-.112h1.744a3.562,3.562,0,0,1,1.9.4,1.5,1.5,0,0,1,.625,1.366,1.6,1.6,0,0,1-.792,1.558,1.492,1.492,0,0,1,.661.55,1.919,1.919,0,0,1,.241,1.057,2.257,2.257,0,0,1-.124.773,1.339,1.339,0,0,1-.4.574,1.875,1.875,0,0,1-.729.359,4.225,4.225,0,0,1-1.107.124Zm.977-5.774c-.041,0-.062.012-.062.036v1.731c0,.033.025.049.074.049h.755a1.665,1.665,0,0,0,.97-.216.8.8,0,0,0,.291-.687.764.764,0,0,0-.334-.716,1.914,1.914,0,0,0-.965-.2Zm.025,2.881c-.049,0-.074.016-.074.049v1.805c0,.033.02.049.062.049h.742a2.169,2.169,0,0,0,1.026-.192.74.74,0,0,0,.346-.711.861.861,0,0,0-.352-.755,1.718,1.718,0,0,0-1-.247Z" transform="translate(-320.824 -575.454)"/><path class="a" d="M330.8,576.51a.3.3,0,0,1-.234-.074.465.465,0,0,1-.062-.284v-.334a.414.414,0,0,1,.056-.26c.036-.041.125-.062.265-.062h.532c.132,0,.208.031.229.093a.887.887,0,0,1,.031.265v.322a.489.489,0,0,1-.049.265.25.25,0,0,1-.21.069Zm-.036,5.823c-.116,0-.188-.027-.216-.08a.714.714,0,0,1-.043-.3v-4.364a.524.524,0,0,1,.043-.242c.028-.053.109-.08.241-.08h.519c.156,0,.247.023.272.069a.589.589,0,0,1,.037.253v4.364a.987.987,0,0,1-.031.3c-.02.054-.1.08-.229.08Z" transform="translate(-324.52 -575.409)"/><path class="a" d="M334.682,582.291a.379.379,0,0,1-.29-.08.535.535,0,0,1-.069-.327v-6.17a.44.44,0,0,1,.069-.266.328.328,0,0,1,.278-.093h.506q.26,0,.3.093a.763.763,0,0,1,.044.3v6.108a.821.821,0,0,1-.049.334q-.05.1-.26.1Z" transform="translate(-325.978 -575.355)"/><path class="a" d="M338.482,582.291a.382.382,0,0,1-.291-.08.541.541,0,0,1-.068-.327v-6.17a.444.444,0,0,1,.068-.266.33.33,0,0,1,.279-.093h.506q.26,0,.3.093a.766.766,0,0,1,.043.3v6.108a.811.811,0,0,1-.049.334q-.049.1-.26.1Z" transform="translate(-327.429 -575.355)"/><path class="a" d="M343.079,581.154a1.23,1.23,0,0,0,.37.952,1.442,1.442,0,0,0,.94.284,4,4,0,0,0,.872-.074c.21-.05.381-.091.513-.124a.341.341,0,0,1,.3-.012.241.241,0,0,1,.1.222v.446a.34.34,0,0,1-.074.247.745.745,0,0,1-.321.137c-.033.008-.1.02-.2.037s-.216.035-.353.055-.28.038-.432.05-.3.019-.439.019a2.617,2.617,0,0,1-1.9-.6,2.753,2.753,0,0,1-.606-2.009,3.194,3.194,0,0,1,.544-2.034,2.048,2.048,0,0,1,1.694-.674,2.214,2.214,0,0,1,1.6.532,1.982,1.982,0,0,1,.55,1.5v.544a.712.712,0,0,1-.08.383q-.08.124-.426.124Zm.977-2.2a.782.782,0,0,0-.729.371,1.673,1.673,0,0,0-.223.878v.036h1.916a2.113,2.113,0,0,0-.216-.945A.783.783,0,0,0,344.056,578.953Z" transform="translate(-328.849 -576.393)"/><path class="a" d="M353.674,579.044a.183.183,0,0,1-.074.155.3.3,0,0,1-.185.056,1.4,1.4,0,0,0-.371.055c-.132.038-.252.077-.359.118a2.1,2.1,0,0,0-.47.377.6.6,0,0,0-.185.389v2.719a.9.9,0,0,1-.049.353c-.033.07-.12.105-.26.105h-.508q-.235,0-.3-.105a.65.65,0,0,1-.068-.34v-4.253a.542.542,0,0,1,.061-.291c.042-.061.132-.092.273-.092h.519a.437.437,0,0,1,.241.067.312.312,0,0,1,.105.279v.135a1.845,1.845,0,0,1,.636-.42,2.025,2.025,0,0,1,.736-.136.717.717,0,0,1,.2.025c.057.016.082.082.074.2Z" transform="translate(-332.285 -576.447)"/><path class="a" d="M362.789,582.371a.358.358,0,0,1-.278-.08.455.455,0,0,1-.069-.291v-6.084a.338.338,0,0,1,.074-.26.53.53,0,0,1,.309-.061h.593c.14,0,.227.027.26.08a.6.6,0,0,1,.049.29v6.084a.427.427,0,0,1-.055.247q-.057.074-.266.074Z" transform="translate(-336.714 -575.447)"/><path class="a" d="M366.941,582.379a.362.362,0,0,1-.247-.1.43.43,0,0,1-.112-.334v-5.922a.6.6,0,0,1,.062-.3.27.27,0,0,1,.26-.112h1.8a5.623,5.623,0,0,1,1.039.093,2.312,2.312,0,0,1,.866.339,1.733,1.733,0,0,1,.587.681,2.467,2.467,0,0,1,.216,1.1v2.4a2.332,2.332,0,0,1-.24,1.144,1.768,1.768,0,0,1-.6.649,2.1,2.1,0,0,1-.779.29,4.78,4.78,0,0,1-.779.069Zm3.2-4.476a1.056,1.056,0,0,0-.383-.933,1.8,1.8,0,0,0-1.039-.266h-.779c-.066,0-.1.02-.1.062v4.426c0,.057.045.086.137.086h.741a3.547,3.547,0,0,0,.513-.036,1.268,1.268,0,0,0,.457-.155.858.858,0,0,0,.328-.352,1.371,1.371,0,0,0,.124-.631Z" transform="translate(-338.294 -575.454)"/></g><path class="b" d="M360.4,618.237H346.323a4.477,4.477,0,0,1-3.234-1.381l-6.518-6.81a3.2,3.2,0,0,1,.091-4.524h0a3.205,3.205,0,0,1,4.527.08l3.6,3.724a.5.5,0,0,0,.854-.346V587.36A3.256,3.256,0,0,1,348.9,584.1h0a3.256,3.256,0,0,1,3.256,3.256v11.761a3.06,3.06,0,0,1,3.059-3.059h0a3.06,3.06,0,0,1,3.059,3.059v3.256a3.4,3.4,0,0,1,3.4-3.4h0a3.4,3.4,0,0,1,3.4,3.4v2.162a2.919,2.919,0,0,1,2.919-2.919h0a2.919,2.919,0,0,1,2.919,2.919v10.814a2.884,2.884,0,0,1-2.885,2.885h-3.543" transform="translate(-12.586 -13.574)"/><line class="b" x1="11.677" transform="translate(321.383 581.982)"/><path class="b" d="M320.19,586.75h-2a7.715,7.715,0,0,1-7.715-7.716V568.753a7.715,7.715,0,0,1,7.715-7.715h30.665a7.715,7.715,0,0,1,7.716,7.715v10.281a7.716,7.716,0,0,1-7.716,7.716h-6.319" transform="translate(-2.962 -4.768)"/></g></svg>